<svg width="117" height="117" viewBox="0 0 117 117" fill="none" xmlns="http://www.w3.org/2000/svg">
<g id="Asset 1 1" clip-path="url(#clip0_2_2795)">
<g id="Layer 1">
<g id="Group">
<path id="Vector" d="M64.0953 29.2887C63.1306 27.4107 61.7414 25.7771 59.9406 24.3879C58.1398 22.9987 55.9402 21.8797 53.342 21.0307C50.7565 20.1818 47.8238 19.7573 44.5567 19.7573C41.8812 19.7573 39.0643 20.0789 36.0929 20.7092C33.1216 21.3266 30.0088 22.3942 26.7674 23.912V25.0053C27.8608 25.0053 28.7354 25.2626 29.3914 25.79C30.0474 26.3173 30.369 27.2949 30.369 28.7356V61.4328C30.369 62.7191 30.0217 63.6838 29.3271 64.3655C28.6197 65.0344 27.7321 65.4203 26.6388 65.5103V66.7065H40.5435V65.5103C39.4759 65.3688 38.5883 64.9701 37.9066 64.2883C37.2249 63.6195 36.8776 62.6676 36.8776 61.4328V50.4994C38.6655 51.2583 40.4663 52.2102 42.2928 53.3807C44.1193 54.5512 45.9073 55.8375 47.6437 57.2652C48.1968 57.7154 48.7371 58.1656 49.2516 58.6416H49.2645C49.3674 58.5258 49.4574 58.4358 49.5474 58.3586C50.9495 57.098 52.493 55.9918 54.1266 55.1043C51.5798 53.1749 48.7114 51.5927 45.5214 50.3579C47.7338 50.3579 50.0105 50.0749 52.3387 49.4961C54.6668 48.9044 56.8149 47.9912 58.7829 46.7435C60.7381 45.5086 62.3588 43.9394 63.6322 42.0357C64.8928 40.1449 65.523 37.8553 65.523 35.1798C65.523 33.1218 65.0471 31.1666 64.0953 29.2887ZM56.995 41.1996C55.9917 42.8075 54.654 44.1195 53.0075 45.1228C51.3482 46.1261 49.4574 46.8721 47.3479 47.3609C45.2384 47.8625 43.0646 48.1069 40.8265 48.1069H36.8776V23.8348C38.8842 23.2174 40.9808 22.9087 43.1546 22.9087C45.3284 22.9087 47.4637 23.2303 49.3545 23.8606C51.2453 24.4908 52.8789 25.3655 54.2424 26.4974C55.5929 27.6294 56.6477 28.9542 57.3937 30.472C58.1269 31.9898 58.4999 33.6363 58.4999 35.4242C58.4999 37.6623 57.9983 39.5918 56.995 41.1996ZM64.404 64.9443C63.6451 64.6099 62.8733 63.9539 62.1015 62.9763C60.8024 61.3556 59.4647 59.8507 58.0626 58.5001C58.0497 58.5129 58.024 58.5258 58.0112 58.5387C57.1622 59.0918 56.339 59.7606 55.5286 60.5324C54.8469 61.2013 54.1909 61.9602 53.5864 62.7962C53.5735 62.8091 53.5606 62.8348 53.5478 62.8477C54.7311 64.1211 55.8373 65.4074 56.8278 66.7065H66.8608V65.5746C65.9732 65.4846 65.15 65.2788 64.404 64.9443Z" fill="#C6993F"/>
<path id="Vector_2" d="M87.5571 80.4051V80.9068C86.5924 80.9711 85.8206 81.3312 85.2675 81.9872C84.663 82.7076 84.3671 83.505 84.3671 84.3668V94.6442C81.7688 96.2778 79.0033 97.5255 76.1349 98.3487C70.1409 100.098 63.7223 100.098 57.8569 98.1815C54.9242 97.2297 52.2744 95.7376 49.9977 93.7696C47.721 91.8144 45.8816 89.319 44.531 86.3606C43.1676 83.3893 42.4858 79.8649 42.4858 75.8774C42.4858 72.3401 43.1676 69.0859 44.531 66.2174C45.8302 63.4519 47.5666 61.0466 49.7276 59.0657C49.8048 58.9886 49.8819 58.9114 49.972 58.8471C51.374 57.5736 52.9176 56.4803 54.564 55.5928C55.5544 55.0525 56.6221 54.5638 57.7668 54.1264C60.6738 53.0331 63.7609 52.48 66.938 52.48C68.8803 52.48 70.8612 52.6987 72.8035 53.136C74.7457 53.5733 76.6366 54.2422 78.6046 55.194C79.2349 55.477 79.788 55.5285 80.2253 55.3484C80.5469 55.2069 80.8041 54.9496 80.9971 54.5638H81.6659V64.6225H81.0099C80.534 63.1175 79.8394 61.7926 78.9519 60.6736C78.0258 59.4902 76.9453 58.4612 75.7233 57.6122C74.4628 56.7504 73.1636 56.1202 71.7744 55.7085C68.2114 54.6152 64.6099 54.9239 61.0211 56.2874C59.8378 56.7118 58.7058 57.2907 57.6511 57.9981C56.7764 58.5641 55.9146 59.2715 55.0914 60.069C54.3711 60.7636 53.6893 61.5611 53.0719 62.4229C52.2101 63.5934 51.4641 64.944 50.7566 66.5519C49.6376 69.1502 49.0716 72.3016 49.0716 75.8903C49.0716 79.8649 49.6247 83.2221 50.7309 85.8847C51.8242 88.573 53.2649 90.7725 55.0142 92.4318C56.7635 94.104 58.8216 95.3002 61.1112 96.0077C65.163 97.2554 69.4334 97.3326 73.3308 96.5351C75.093 96.1878 76.7009 95.7118 78.2316 95.0816L78.4374 95.0044V83.2607H65.4717L67.0666 80.4051H87.5571Z" fill="#C6993F"/>
<path id="Vector_3" d="M78.3087 43.7851C78.3087 39.2059 74.6042 35.5014 70.025 35.5014C74.6042 35.5014 78.3087 31.7969 78.3087 27.2178C78.3087 31.7969 82.0132 35.5014 86.5923 35.5014C82.0132 35.5014 78.3087 39.2059 78.3087 43.7851Z" fill="#C6993F"/>
<path id="Vector_4" d="M58.5 117C26.2401 117 0 90.7599 0 58.5C0 26.2401 26.2401 0 58.5 0C90.7599 0 117 26.2401 117 58.5C117 90.7599 90.7599 117 58.5 117ZM58.5 2.57256C27.655 2.57256 2.57256 27.655 2.57256 58.5C2.57256 89.345 27.655 114.427 58.5 114.427C89.345 114.427 114.427 89.345 114.427 58.5C114.427 27.655 89.3321 2.57256 58.5 2.57256Z" fill="#C6993F"/>
</g>
</g>
</g>
<defs>
<clipPath id="clip0_2_2795">
<rect width="117" height="117" fill="white"/>
</clipPath>
</defs>
</svg>
